<svg width="511" height="71" viewBox="0 0 511 71" fill="none" xmlns="http://www.w3.org/2000/svg">
    <rect x="484" y="66" width="5" height="5" rx="1" fill="#222831" fill-opacity="0.12"/>
    <rect x="484" y="22" width="5" height="5" rx="1" fill="#222831" fill-opacity="0.12"/>
    <rect x="484" y="44" width="5" height="5" rx="1" fill="#222831" fill-opacity="0.12"/>
    <rect x="484" width="5" height="5" rx="1" fill="#222831" fill-opacity="0.12"/>
    <rect x="396" y="66" width="5" height="5" rx="1" fill="#222831" fill-opacity="0.12"/>
    <rect x="396" y="22" width="5" height="5" rx="1" fill="#222831" fill-opacity="0.12"/>
    <rect x="396" y="44" width="5" height="5" rx="1" fill="#222831" fill-opacity="0.12"/>
    <rect x="396" width="5" height="5" rx="1" fill="#222831" fill-opacity="0.12"/>
    <rect x="440" y="66" width="5" height="5" rx="1" fill="#222831" fill-opacity="0.12"/>
    <rect x="440" y="22" width="5" height="5" rx="1" fill="#222831" fill-opacity="0.12"/>
    <rect x="440" y="44" width="5" height="5" rx="1" fill="#222831" fill-opacity="0.12"/>
    <rect x="440" width="5" height="5" rx="1" fill="#222831" fill-opacity="0.12"/>
    <rect x="264" y="66" width="5" height="5" rx="1" fill="#222831" fill-opacity="0.12"/>
    <rect x="264" y="22" width="5" height="5" rx="1" fill="#222831" fill-opacity="0.12"/>
    <rect x="264" y="44" width="5" height="5" rx="1" fill="#222831" fill-opacity="0.12"/>
    <rect x="264" width="5" height="5" rx="1" fill="#222831" fill-opacity="0.12"/>
    <rect x="418" y="66" width="5" height="5" rx="1" fill="#222831" fill-opacity="0.12"/>
    <rect x="418" y="22" width="5" height="5" rx="1" fill="#222831" fill-opacity="0.12"/>
    <rect x="418" y="44" width="5" height="5" rx="1" fill="#222831" fill-opacity="0.12"/>
    <rect x="418" width="5" height="5" rx="1" fill="#222831" fill-opacity="0.12"/>
    <rect x="176" y="66" width="5" height="5" rx="1" fill="#222831" fill-opacity="0.12"/>
    <rect x="176" y="22" width="5" height="5" rx="1" fill="#222831" fill-opacity="0.12"/>
    <rect x="176" y="44" width="5" height="5" rx="1" fill="#222831" fill-opacity="0.12"/>
    <rect x="176" width="5" height="5" rx="1" fill="#222831" fill-opacity="0.12"/>
    <rect x="352" y="66" width="5" height="5" rx="1" fill="#222831" fill-opacity="0.12"/>
    <rect x="352" y="22" width="5" height="5" rx="1" fill="#222831" fill-opacity="0.12"/>
    <rect x="352" y="44" width="5" height="5" rx="1" fill="#222831" fill-opacity="0.12"/>
    <rect x="352" width="5" height="5" rx="1" fill="#222831" fill-opacity="0.12"/>
    <rect x="462" y="66" width="5" height="5" rx="1" fill="#222831" fill-opacity="0.12"/>
    <rect x="462" y="22" width="5" height="5" rx="1" fill="#222831" fill-opacity="0.12"/>
    <rect x="462" y="44" width="5" height="5" rx="1" fill="#222831" fill-opacity="0.12"/>
    <rect x="462" width="5" height="5" rx="1" fill="#222831" fill-opacity="0.12"/>
    <rect x="308" y="66" width="5" height="5" rx="1" fill="#222831" fill-opacity="0.12"/>
    <rect x="308" y="22" width="5" height="5" rx="1" fill="#222831" fill-opacity="0.12"/>
    <rect x="308" y="44" width="5" height="5" rx="1" fill="#222831" fill-opacity="0.12"/>
    <rect x="308" width="5" height="5" rx="1" fill="#222831" fill-opacity="0.12"/>
    <rect x="330" y="66" width="5" height="5" rx="1" fill="#222831" fill-opacity="0.12"/>
    <rect x="330" y="22" width="5" height="5" rx="1" fill="#222831" fill-opacity="0.12"/>
    <rect x="330" y="44" width="5" height="5" rx="1" fill="#222831" fill-opacity="0.12"/>
    <rect x="330" width="5" height="5" rx="1" fill="#222831" fill-opacity="0.12"/>
    <rect x="286" y="66" width="5" height="5" rx="1" fill="#222831" fill-opacity="0.12"/>
    <rect x="286" y="22" width="5" height="5" rx="1" fill="#222831" fill-opacity="0.12"/>
    <rect x="286" y="44" width="5" height="5" rx="1" fill="#222831" fill-opacity="0.12"/>
    <rect x="286" width="5" height="5" rx="1" fill="#222831" fill-opacity="0.12"/>
    <rect x="506" y="66" width="5" height="5" rx="1" fill="#222831" fill-opacity="0.12"/>
    <rect x="506" y="22" width="5" height="5" rx="1" fill="#222831" fill-opacity="0.12"/>
    <rect x="506" y="44" width="5" height="5" rx="1" fill="#222831" fill-opacity="0.12"/>
    <rect x="506" width="5" height="5" rx="1" fill="#222831" fill-opacity="0.12"/>
    <rect x="220" y="66" width="5" height="5" rx="1" fill="#222831" fill-opacity="0.12"/>
    <rect x="220" y="22" width="5" height="5" rx="1" fill="#222831" fill-opacity="0.12"/>
    <rect x="220" y="44" width="5" height="5" rx="1" fill="#222831" fill-opacity="0.12"/>
    <rect x="220" width="5" height="5" rx="1" fill="#222831" fill-opacity="0.12"/>
    <rect x="374" y="66" width="5" height="5" rx="1" fill="#222831" fill-opacity="0.12"/>
    <rect x="374" y="22" width="5" height="5" rx="1" fill="#222831" fill-opacity="0.12"/>
    <rect x="374" y="44" width="5" height="5" rx="1" fill="#222831" fill-opacity="0.12"/>
    <rect x="374" width="5" height="5" rx="1" fill="#222831" fill-opacity="0.12"/>
    <rect x="198" y="66" width="5" height="5" rx="1" fill="#222831" fill-opacity="0.12"/>
    <rect x="198" y="22" width="5" height="5" rx="1" fill="#222831" fill-opacity="0.12"/>
    <rect x="198" y="44" width="5" height="5" rx="1" fill="#222831" fill-opacity="0.12"/>
    <rect x="198" width="5" height="5" rx="1" fill="#222831" fill-opacity="0.12"/>
    <rect x="242" y="66" width="5" height="5" rx="1" fill="#222831" fill-opacity="0.12"/>
    <rect x="242" y="22" width="5" height="5" rx="1" fill="#222831" fill-opacity="0.12"/>
    <rect x="242" y="44" width="5" height="5" rx="1" fill="#222831" fill-opacity="0.12"/>
    <rect x="242" width="5" height="5" rx="1" fill="#222831" fill-opacity="0.12"/>
    <rect x="132" y="66" width="5" height="5" rx="1" fill="#222831" fill-opacity="0.12"/>
    <rect x="132" y="22" width="5" height="5" rx="1" fill="#222831" fill-opacity="0.12"/>
    <rect x="132" y="44" width="5" height="5" rx="1" fill="#222831" fill-opacity="0.12"/>
    <rect x="132" width="5" height="5" rx="1" fill="#222831" fill-opacity="0.12"/>
    <rect x="44" y="66" width="5" height="5" rx="1" fill="#222831" fill-opacity="0.12"/>
    <rect x="44" y="22" width="5" height="5" rx="1" fill="#222831" fill-opacity="0.12"/>
    <rect x="44" y="44" width="5" height="5" rx="1" fill="#222831" fill-opacity="0.12"/>
    <rect x="44" width="5" height="5" rx="1" fill="#222831" fill-opacity="0.12"/>
    <rect x="88" y="66" width="5" height="5" rx="1" fill="#222831" fill-opacity="0.12"/>
    <rect x="88" y="22" width="5" height="5" rx="1" fill="#222831" fill-opacity="0.12"/>
    <rect x="88" y="44" width="5" height="5" rx="1" fill="#222831" fill-opacity="0.12"/>
    <rect x="88" width="5" height="5" rx="1" fill="#222831" fill-opacity="0.12"/>
    <rect x="154" y="66" width="5" height="5" rx="1" fill="#222831" fill-opacity="0.12"/>
    <rect x="154" y="22" width="5" height="5" rx="1" fill="#222831" fill-opacity="0.12"/>
    <rect x="154" y="44" width="5" height="5" rx="1" fill="#222831" fill-opacity="0.12"/>
    <rect x="154" width="5" height="5" rx="1" fill="#222831" fill-opacity="0.12"/>
    <rect x="66" y="66" width="5" height="5" rx="1" fill="#222831" fill-opacity="0.12"/>
    <rect x="66" y="22" width="5" height="5" rx="1" fill="#222831" fill-opacity="0.12"/>
    <rect x="66" y="44" width="5" height="5" rx="1" fill="#222831" fill-opacity="0.12"/>
    <rect x="66" width="5" height="5" rx="1" fill="#222831" fill-opacity="0.12"/>
    <rect x="110" y="66" width="5" height="5" rx="1" fill="#222831" fill-opacity="0.12"/>
    <rect x="110" y="22" width="5" height="5" rx="1" fill="#222831" fill-opacity="0.12"/>
    <rect x="110" y="44" width="5" height="5" rx="1" fill="#222831" fill-opacity="0.12"/>
    <rect x="110" width="5" height="5" rx="1" fill="#222831" fill-opacity="0.12"/>
    <rect y="66" width="5" height="5" rx="1" fill="#222831" fill-opacity="0.12"/>
    <rect y="22" width="5" height="5" rx="1" fill="#222831" fill-opacity="0.12"/>
    <rect y="44" width="5" height="5" rx="1" fill="#222831" fill-opacity="0.12"/>
    <rect width="5" height="5" rx="1" fill="#222831" fill-opacity="0.12"/>
    <rect x="22" y="66" width="5" height="5" rx="1" fill="#222831" fill-opacity="0.12"/>
    <rect x="22" y="22" width="5" height="5" rx="1" fill="#222831" fill-opacity="0.12"/>
    <rect x="22" y="44" width="5" height="5" rx="1" fill="#222831" fill-opacity="0.12"/>
    <rect x="22" width="5" height="5" rx="1" fill="#222831" fill-opacity="0.12"/>
</svg>
