<svg width="565" height="411" viewBox="0 0 565 411" fill="none" xmlns="http://www.w3.org/2000/svg">
<path d="M55.3224 247.641C53.0302 239.089 53.0299 230.084 55.3214 221.531C57.613 212.979 62.1155 205.18 68.3766 198.919L198.843 68.4505C205.103 62.1892 212.902 57.6866 221.454 55.395C230.006 53.1034 239.011 53.1037 247.563 55.3959L369.647 88.1088C370.918 71.3835 376.741 55.3243 386.485 41.6709L239.444 2.27457C228.89 -0.553173 217.778 -0.553115 207.224 2.27476C196.67 5.10264 187.046 10.6587 179.319 18.3846L18.3148 179.393C10.5891 187.12 5.03318 196.743 2.20538 207.298C-0.622434 217.852 -0.622495 228.965 2.20519 239.519L43.1161 392.203C56.49 381.989 72.4126 375.646 89.1459 373.867L55.3224 247.641Z" fill="#30475E" fill-opacity="0.03"/>
<path d="M474.266 186.594L509.219 317.038C511.512 325.592 511.509 334.596 509.219 343.147C506.926 351.702 502.422 359.499 496.161 365.76L365.695 496.232C359.435 502.493 351.637 506.994 343.083 509.287C334.532 511.577 325.525 511.577 316.975 509.287L190.752 475.463C188.973 492.197 182.631 508.12 172.417 521.493L325.097 562.405C335.65 565.234 346.763 565.234 357.316 562.405C367.872 559.576 377.495 554.023 385.222 546.295L546.226 385.287C553.953 377.56 559.507 367.937 562.336 357.381C565.165 346.827 565.165 335.714 562.336 325.161L519.882 166.761C506.791 177.446 491.006 184.309 474.266 186.594Z" fill="#30475E" fill-opacity="0.03"/>
<path d="M46.7879 413.261C36.4476 423.6 29.4058 436.777 26.5529 451.117C23.7 465.461 25.1642 480.328 30.7603 493.839C36.3561 507.346 45.8327 518.895 57.9911 527.02C70.1499 535.142 84.4444 539.481 99.0677 539.481C113.691 539.481 127.985 535.142 140.144 527.02C152.303 518.895 161.779 507.346 167.375 493.839C172.971 480.328 174.435 465.461 171.582 451.117C168.729 436.777 161.688 423.6 151.347 413.261C137.471 399.417 118.67 391.64 99.0677 391.64C79.4658 391.64 60.6641 399.417 46.7879 413.261Z" fill="#30475E" fill-opacity="0.03"/>
<path d="M409.359 43.0444C399.02 53.3845 391.976 66.5588 389.125 80.9013C386.272 95.2436 387.736 110.11 393.332 123.62C398.928 137.131 408.404 148.678 420.561 156.802C432.721 164.927 447.015 169.263 461.637 169.263C476.262 169.263 490.556 164.927 502.716 156.802C514.874 148.678 524.349 137.131 529.945 123.62C535.542 110.11 537.005 95.2436 534.152 80.9013C531.302 66.5588 524.257 53.3845 513.918 43.0444C500.044 29.199 481.24 21.4233 461.637 21.4233C442.037 21.4233 423.234 29.199 409.359 43.0444Z" fill="#30475E" fill-opacity="0.03"/>
<path d="M325.664 478.328C322.694 478.328 319.74 477.939 316.871 477.171L201.33 446.209C197.477 425.635 187.496 406.705 172.696 391.906C157.895 377.106 138.967 367.122 118.394 363.271L87.4359 247.736C85.9011 241.973 85.9054 235.909 87.449 230.148C88.9926 224.388 92.0211 219.134 96.2316 214.91L214.822 96.3139C219.04 92.095 224.295 89.0613 230.058 87.5171C235.821 85.9731 241.888 85.9734 247.651 87.518L359.953 117.61C364.407 138.057 374.933 156.681 390.151 171.044C405.37 185.406 424.572 194.837 445.24 198.102L477.08 316.958C478.614 322.723 478.611 328.788 477.064 334.547C475.521 340.309 472.494 345.563 468.281 349.788L349.691 468.381C346.543 471.543 342.796 474.054 338.672 475.759C334.548 477.468 330.128 478.34 325.664 478.328Z" fill="#30475E" fill-opacity="0.03"/>
</svg>
