<svg width="261" height="35" viewBox="0 0 261 35" fill="none" xmlns="http://www.w3.org/2000/svg">
<path d="M56.824 10.632H55.6V9H59.776V10.632H58.528L62.128 20.688L65.68 10.632H64.072V9H68.704V10.632H67.432L62.488 24.624C62.216 25.376 61.88 25.96 61.48 26.376C61.08 26.792 60.488 27 59.704 27H58.36V25.368H60.448L61.24 23.136L56.824 10.632ZM79.0649 9C80.1209 9 80.8329 9.2 81.2009 9.6C81.5689 10 81.7529 10.792 81.7529 11.976V13.728C81.7529 14.64 81.5689 15.304 81.2009 15.72C80.9929 15.928 80.7289 16.128 80.4089 16.32C80.1049 16.512 79.7289 16.744 79.2809 17.016L73.9769 20.328V25.368H75.5369V27H70.4969V25.368H72.0089V10.656H70.4969V9H79.0649ZM80.0009 10.656H73.9769V18.408L80.0009 14.688V10.656ZM89.3316 19.08L87.1956 10.632L85.0596 19.08H89.3316ZM94.2996 25.368V27H89.6196V25.368H90.9156L89.7156 20.592H84.6756L83.4756 25.368H84.7956V27H80.1156V25.368H81.6276L85.8036 9H88.6356L92.7396 25.368H94.2996ZM109.315 25.344V27H104.515V25.344H105.931V10.632H104.611L99.6666 24.624C99.2506 26.208 98.3226 27 96.8826 27H95.4906V25.368H97.5786L102.811 10.632H100.915V9H107.899V25.344H109.315ZM119.052 16.92V18.504H112.068V16.92H119.052ZM133.289 11.928C134.425 11.928 135.201 12.224 135.617 12.816C135.953 13.312 136.121 14.12 136.121 15.24V20.688C136.121 21.808 135.897 22.6 135.449 23.064C134.985 23.528 134.153 23.76 132.953 23.76H129.977V25.368H131.633V27H126.545V25.368H128.105V23.76H125.081C123.881 23.76 123.057 23.528 122.609 23.064C122.161 22.584 121.937 21.792 121.937 20.688V15.24C121.937 14.12 122.113 13.312 122.465 12.816C122.865 12.224 123.625 11.928 124.745 11.928H128.105V10.656H126.497V9.024H131.537V10.656H129.929V11.928H133.289ZM128.105 22.104V13.512H123.881V22.104H128.105ZM134.153 13.512H129.929V22.104H134.153V13.512ZM137.543 10.632H136.319V9H140.495V10.632H139.247L142.847 20.688L146.399 10.632H144.791V9H149.423V10.632H148.151L143.207 24.624C142.935 25.376 142.599 25.96 142.199 26.376C141.799 26.792 141.207 27 140.423 27H139.079V25.368H141.167L141.959 23.136L137.543 10.632ZM163.336 10.632V25.368H164.848V27H159.904V25.368H161.368V18.504H154.696V25.368H156.16V27H151.216V25.368H152.728V10.632H151.216V9H156.16V10.632H154.696V16.896H161.368V10.632H159.904V9H164.848V10.632H163.336ZM174.087 10.632H172.215V9H179.247V25.368H181.143V30.6H179.223V27H168.687V30.6H166.767V25.368H168.855L174.087 10.632ZM177.303 10.632H175.959L170.775 25.368H177.303V10.632ZM191.683 19.08L189.547 10.632L187.411 19.08H191.683ZM196.651 25.368V27H191.971V25.368H193.267L192.067 20.592H187.027L185.827 25.368H187.147V27H182.467V25.368H183.979L188.155 9H190.987L195.091 25.368H196.651ZM198.802 10.632V9H202.498L207.586 19.488L212.626 9H216.322V10.632H214.81V25.368H216.322V27H211.282V25.368H212.842V13.008L208.306 22.344H206.794L202.282 12.936V25.368H203.842V27H198.802V25.368H200.314V10.632H198.802ZM227.947 15.168V20.208H226.315V18.504H222.931V25.368H229.075V22.56H230.707V27H219.451V25.368H220.963V10.632H219.451V9H230.707V13.44H229.075V10.632H222.931V16.872H226.315V15.168H227.947ZM245.226 10.632V25.368H246.738V27H241.794V25.368H243.258V18.504H236.586V25.368H238.05V27H233.106V25.368H234.618V10.632H233.106V9H238.05V10.632H236.586V16.896H243.258V10.632H241.794V9H246.738V10.632H245.226ZM251.778 25.368H253.29V10.632H250.266V13.464H248.538V9H260.034V13.464H258.282V10.632H255.258V25.368H256.818V27H251.778V25.368Z" fill="#30475E"/>
<path d="M3.42564 15.3479C3.28349 14.8175 3.28347 14.259 3.42558 13.7287C3.56769 13.1983 3.84693 12.7146 4.23521 12.3264L12.3262 4.2354C12.7145 3.84711 13.1981 3.56788 13.7285 3.42577C14.2589 3.28366 14.8173 3.28367 15.3477 3.42582L22.9188 5.45451C22.9976 4.41729 23.3588 3.42138 23.9631 2.57467L14.8442 0.131519C14.1896 -0.0438433 13.5005 -0.0438397 12.846 0.13153C12.1914 0.306901 11.5946 0.65146 11.1155 1.13058L1.13058 11.1155C0.651457 11.5946 0.306899 12.1914 0.13153 12.846C-0.0438396 13.5005 -0.0438434 14.1897 0.131519 14.8442L2.66866 24.3128C3.49805 23.6794 4.48551 23.286 5.52324 23.1757L3.42564 15.3479Z" fill="#30475E"/>
<path d="M29.4065 11.5621L31.5742 19.6516C31.7164 20.182 31.7162 20.7404 31.5742 21.2707C31.432 21.8012 31.1527 22.2848 30.7644 22.673L22.6734 30.7642C22.2852 31.1525 21.8016 31.4316 21.2711 31.5738C20.7408 31.7158 20.1822 31.7158 19.652 31.5738L11.8241 29.4762C11.7138 30.514 11.3205 31.5015 10.687 32.3308L20.1557 34.8679C20.8101 35.0434 21.4993 35.0434 22.1538 34.8679C22.8084 34.6925 23.4052 34.3481 23.8844 33.8689L33.8693 23.884C34.3485 23.4048 34.6929 22.808 34.8683 22.1534C35.0437 21.4989 35.0437 20.8097 34.8683 20.1553L32.2355 10.3322C31.4236 10.9948 30.4447 11.4204 29.4065 11.5621Z" fill="#30475E"/>
<path d="M2.89622 25.6186C2.25496 26.2597 1.81826 27.0769 1.64133 27.9662C1.46441 28.8557 1.55521 29.7777 1.90225 30.6156C2.24928 31.4533 2.83699 32.1694 3.59101 32.6733C4.34505 33.177 5.23153 33.4461 6.13841 33.4461C7.04527 33.4461 7.93178 33.177 8.6858 32.6733C9.43984 32.1694 10.0275 31.4533 10.3746 30.6156C10.7216 29.7777 10.8124 28.8557 10.6355 27.9662C10.4586 27.0769 10.0219 26.2597 9.38061 25.6186C8.52005 24.76 7.35405 24.2778 6.13841 24.2778C4.92278 24.2778 3.75678 24.76 2.89622 25.6186Z" fill="#30475E"/>
<path d="M25.3815 2.65979C24.7403 3.30103 24.3035 4.11803 24.1267 5.00748C23.9498 5.89691 24.0405 6.81885 24.3876 7.65669C24.7347 8.49452 25.3223 9.21064 26.0762 9.71446C26.8304 10.2183 27.7168 10.4872 28.6236 10.4872C29.5306 10.4872 30.4171 10.2183 31.1712 9.71446C31.9251 9.21064 32.5128 8.49452 32.8598 7.65669C33.2069 6.81885 33.2977 5.89691 33.1207 5.00748C32.9439 4.11803 32.5071 3.30103 31.8659 2.65979C31.0054 1.80117 29.8393 1.31897 28.6236 1.31897C27.4081 1.31897 26.242 1.80117 25.3815 2.65979Z" fill="#30475E"/>
<path d="M20.1914 29.6539C20.0072 29.6539 19.824 29.6298 19.6461 29.5821L12.4806 27.662C12.2417 26.3862 11.6227 25.2122 10.7049 24.2945C9.78701 23.3767 8.61314 22.7575 7.33727 22.5187L5.41737 15.3538C5.3222 14.9964 5.32246 14.6203 5.41819 14.2631C5.51392 13.9059 5.70173 13.58 5.96285 13.3181L13.3174 5.9634C13.579 5.70177 13.9048 5.51363 14.2622 5.41787C14.6196 5.32212 14.9959 5.32214 15.3533 5.41792L22.3178 7.28408C22.5941 8.55206 23.2468 9.70704 24.1906 10.5977C25.1344 11.4884 26.3252 12.0733 27.607 12.2758L29.5816 19.6466C29.6767 20.0041 29.6765 20.3802 29.5806 20.7374C29.4849 21.0947 29.2972 21.4205 29.0359 21.6825L21.6814 29.037C21.4862 29.2332 21.2538 29.3889 20.9981 29.4946C20.7423 29.6005 20.4682 29.6547 20.1914 29.6539Z" fill="#30475E"/>
</svg>
