<svg width="71" height="489" viewBox="0 0 71 489" fill="none" xmlns="http://www.w3.org/2000/svg">
<rect x="5" y="462" width="5" height="5" rx="1" transform="rotate(90 5 462)" fill="#222831" fill-opacity="0.12"/>
<rect x="49" y="462" width="5" height="5" rx="1" transform="rotate(90 49 462)" fill="#222831" fill-opacity="0.12"/>
<rect x="27" y="462" width="5" height="5" rx="1" transform="rotate(90 27 462)" fill="#222831" fill-opacity="0.12"/>
<rect x="71" y="462" width="5" height="5" rx="1" transform="rotate(90 71 462)" fill="#222831" fill-opacity="0.12"/>
<rect x="5" y="374" width="5" height="5" rx="1" transform="rotate(90 5 374)" fill="#222831" fill-opacity="0.12"/>
<rect x="49" y="374" width="5" height="5" rx="1" transform="rotate(90 49 374)" fill="#222831" fill-opacity="0.12"/>
<rect x="27" y="374" width="5" height="5" rx="1" transform="rotate(90 27 374)" fill="#222831" fill-opacity="0.12"/>
<rect x="71" y="374" width="5" height="5" rx="1" transform="rotate(90 71 374)" fill="#222831" fill-opacity="0.12"/>
<rect x="5" y="418" width="5" height="5" rx="1" transform="rotate(90 5 418)" fill="#222831" fill-opacity="0.12"/>
<rect x="49" y="418" width="5" height="5" rx="1" transform="rotate(90 49 418)" fill="#222831" fill-opacity="0.12"/>
<rect x="27" y="418" width="5" height="5" rx="1" transform="rotate(90 27 418)" fill="#222831" fill-opacity="0.12"/>
<rect x="71" y="418" width="5" height="5" rx="1" transform="rotate(90 71 418)" fill="#222831" fill-opacity="0.12"/>
<rect x="5" y="242" width="5" height="5" rx="1" transform="rotate(90 5 242)" fill="#222831" fill-opacity="0.12"/>
<rect x="49" y="242" width="5" height="5" rx="1" transform="rotate(90 49 242)" fill="#222831" fill-opacity="0.12"/>
<rect x="27" y="242" width="5" height="5" rx="1" transform="rotate(90 27 242)" fill="#222831" fill-opacity="0.12"/>
<rect x="71" y="242" width="5" height="5" rx="1" transform="rotate(90 71 242)" fill="#222831" fill-opacity="0.12"/>
<rect x="5" y="396" width="5" height="5" rx="1" transform="rotate(90 5 396)" fill="#222831" fill-opacity="0.12"/>
<rect x="49" y="396" width="5" height="5" rx="1" transform="rotate(90 49 396)" fill="#222831" fill-opacity="0.12"/>
<rect x="27" y="396" width="5" height="5" rx="1" transform="rotate(90 27 396)" fill="#222831" fill-opacity="0.12"/>
<rect x="71" y="396" width="5" height="5" rx="1" transform="rotate(90 71 396)" fill="#222831" fill-opacity="0.12"/>
<rect x="5" y="154" width="5" height="5" rx="1" transform="rotate(90 5 154)" fill="#222831" fill-opacity="0.12"/>
<rect x="49" y="154" width="5" height="5" rx="1" transform="rotate(90 49 154)" fill="#222831" fill-opacity="0.12"/>
<rect x="27" y="154" width="5" height="5" rx="1" transform="rotate(90 27 154)" fill="#222831" fill-opacity="0.12"/>
<rect x="71" y="154" width="5" height="5" rx="1" transform="rotate(90 71 154)" fill="#222831" fill-opacity="0.12"/>
<rect x="5" y="330" width="5" height="5" rx="1" transform="rotate(90 5 330)" fill="#222831" fill-opacity="0.12"/>
<rect x="49" y="330" width="5" height="5" rx="1" transform="rotate(90 49 330)" fill="#222831" fill-opacity="0.12"/>
<rect x="27" y="330" width="5" height="5" rx="1" transform="rotate(90 27 330)" fill="#222831" fill-opacity="0.12"/>
<rect x="71" y="330" width="5" height="5" rx="1" transform="rotate(90 71 330)" fill="#222831" fill-opacity="0.12"/>
<rect x="5" y="440" width="5" height="5" rx="1" transform="rotate(90 5 440)" fill="#222831" fill-opacity="0.12"/>
<rect x="49" y="440" width="5" height="5" rx="1" transform="rotate(90 49 440)" fill="#222831" fill-opacity="0.12"/>
<rect x="27" y="440" width="5" height="5" rx="1" transform="rotate(90 27 440)" fill="#222831" fill-opacity="0.12"/>
<rect x="71" y="440" width="5" height="5" rx="1" transform="rotate(90 71 440)" fill="#222831" fill-opacity="0.12"/>
<rect x="5" y="286" width="5" height="5" rx="1" transform="rotate(90 5 286)" fill="#222831" fill-opacity="0.12"/>
<rect x="49" y="286" width="5" height="5" rx="1" transform="rotate(90 49 286)" fill="#222831" fill-opacity="0.12"/>
<rect x="27" y="286" width="5" height="5" rx="1" transform="rotate(90 27 286)" fill="#222831" fill-opacity="0.12"/>
<rect x="71" y="286" width="5" height="5" rx="1" transform="rotate(90 71 286)" fill="#222831" fill-opacity="0.12"/>
<rect x="5" y="308" width="5" height="5" rx="1" transform="rotate(90 5 308)" fill="#222831" fill-opacity="0.12"/>
<rect x="49" y="308" width="5" height="5" rx="1" transform="rotate(90 49 308)" fill="#222831" fill-opacity="0.12"/>
<rect x="27" y="308" width="5" height="5" rx="1" transform="rotate(90 27 308)" fill="#222831" fill-opacity="0.12"/>
<rect x="71" y="308" width="5" height="5" rx="1" transform="rotate(90 71 308)" fill="#222831" fill-opacity="0.12"/>
<rect x="5" y="264" width="5" height="5" rx="1" transform="rotate(90 5 264)" fill="#222831" fill-opacity="0.12"/>
<rect x="49" y="264" width="5" height="5" rx="1" transform="rotate(90 49 264)" fill="#222831" fill-opacity="0.12"/>
<rect x="27" y="264" width="5" height="5" rx="1" transform="rotate(90 27 264)" fill="#222831" fill-opacity="0.12"/>
<rect x="71" y="264" width="5" height="5" rx="1" transform="rotate(90 71 264)" fill="#222831" fill-opacity="0.12"/>
<rect x="5" y="484" width="5" height="5" rx="1" transform="rotate(90 5 484)" fill="#222831" fill-opacity="0.12"/>
<rect x="49" y="484" width="5" height="5" rx="1" transform="rotate(90 49 484)" fill="#222831" fill-opacity="0.12"/>
<rect x="27" y="484" width="5" height="5" rx="1" transform="rotate(90 27 484)" fill="#222831" fill-opacity="0.12"/>
<rect x="71" y="484" width="5" height="5" rx="1" transform="rotate(90 71 484)" fill="#222831" fill-opacity="0.12"/>
<rect x="5" y="198" width="5" height="5" rx="1" transform="rotate(90 5 198)" fill="#222831" fill-opacity="0.12"/>
<rect x="49" y="198" width="5" height="5" rx="1" transform="rotate(90 49 198)" fill="#222831" fill-opacity="0.12"/>
<rect x="27" y="198" width="5" height="5" rx="1" transform="rotate(90 27 198)" fill="#222831" fill-opacity="0.12"/>
<rect x="71" y="198" width="5" height="5" rx="1" transform="rotate(90 71 198)" fill="#222831" fill-opacity="0.12"/>
<rect x="5" y="352" width="5" height="5" rx="1" transform="rotate(90 5 352)" fill="#222831" fill-opacity="0.12"/>
<rect x="49" y="352" width="5" height="5" rx="1" transform="rotate(90 49 352)" fill="#222831" fill-opacity="0.12"/>
<rect x="27" y="352" width="5" height="5" rx="1" transform="rotate(90 27 352)" fill="#222831" fill-opacity="0.12"/>
<rect x="71" y="352" width="5" height="5" rx="1" transform="rotate(90 71 352)" fill="#222831" fill-opacity="0.12"/>
<rect x="5" y="176" width="5" height="5" rx="1" transform="rotate(90 5 176)" fill="#222831" fill-opacity="0.12"/>
<rect x="49" y="176" width="5" height="5" rx="1" transform="rotate(90 49 176)" fill="#222831" fill-opacity="0.12"/>
<rect x="27" y="176" width="5" height="5" rx="1" transform="rotate(90 27 176)" fill="#222831" fill-opacity="0.12"/>
<rect x="71" y="176" width="5" height="5" rx="1" transform="rotate(90 71 176)" fill="#222831" fill-opacity="0.12"/>
<rect x="5" y="220" width="5" height="5" rx="1" transform="rotate(90 5 220)" fill="#222831" fill-opacity="0.12"/>
<rect x="49" y="220" width="5" height="5" rx="1" transform="rotate(90 49 220)" fill="#222831" fill-opacity="0.12"/>
<rect x="27" y="220" width="5" height="5" rx="1" transform="rotate(90 27 220)" fill="#222831" fill-opacity="0.12"/>
<rect x="71" y="220" width="5" height="5" rx="1" transform="rotate(90 71 220)" fill="#222831" fill-opacity="0.12"/>
<rect x="5" y="110" width="5" height="5" rx="1" transform="rotate(90 5 110)" fill="#222831" fill-opacity="0.12"/>
<rect x="49" y="110" width="5" height="5" rx="1" transform="rotate(90 49 110)" fill="#222831" fill-opacity="0.12"/>
<rect x="27" y="110" width="5" height="5" rx="1" transform="rotate(90 27 110)" fill="#222831" fill-opacity="0.12"/>
<rect x="71" y="110" width="5" height="5" rx="1" transform="rotate(90 71 110)" fill="#222831" fill-opacity="0.12"/>
<rect x="5" y="22" width="5" height="5" rx="1" transform="rotate(90 5 22)" fill="#222831" fill-opacity="0.12"/>
<rect x="49" y="22" width="5" height="5" rx="1" transform="rotate(90 49 22)" fill="#222831" fill-opacity="0.12"/>
<rect x="27" y="22" width="5" height="5" rx="1" transform="rotate(90 27 22)" fill="#222831" fill-opacity="0.12"/>
<rect x="71" y="22" width="5" height="5" rx="1" transform="rotate(90 71 22)" fill="#222831" fill-opacity="0.12"/>
<rect x="5" y="66" width="5" height="5" rx="1" transform="rotate(90 5 66)" fill="#222831" fill-opacity="0.12"/>
<rect x="49" y="66" width="5" height="5" rx="1" transform="rotate(90 49 66)" fill="#222831" fill-opacity="0.12"/>
<rect x="27" y="66" width="5" height="5" rx="1" transform="rotate(90 27 66)" fill="#222831" fill-opacity="0.12"/>
<rect x="71" y="66" width="5" height="5" rx="1" transform="rotate(90 71 66)" fill="#222831" fill-opacity="0.12"/>
<rect x="5" y="132" width="5" height="5" rx="1" transform="rotate(90 5 132)" fill="#222831" fill-opacity="0.12"/>
<rect x="49" y="132" width="5" height="5" rx="1" transform="rotate(90 49 132)" fill="#222831" fill-opacity="0.12"/>
<rect x="27" y="132" width="5" height="5" rx="1" transform="rotate(90 27 132)" fill="#222831" fill-opacity="0.12"/>
<rect x="71" y="132" width="5" height="5" rx="1" transform="rotate(90 71 132)" fill="#222831" fill-opacity="0.12"/>
<rect x="5" y="44" width="5" height="5" rx="1" transform="rotate(90 5 44)" fill="#222831" fill-opacity="0.12"/>
<rect x="49" y="44" width="5" height="5" rx="1" transform="rotate(90 49 44)" fill="#222831" fill-opacity="0.12"/>
<rect x="27" y="44" width="5" height="5" rx="1" transform="rotate(90 27 44)" fill="#222831" fill-opacity="0.12"/>
<rect x="71" y="44" width="5" height="5" rx="1" transform="rotate(90 71 44)" fill="#222831" fill-opacity="0.12"/>
<rect x="5" y="88" width="5" height="5" rx="1" transform="rotate(90 5 88)" fill="#222831" fill-opacity="0.12"/>
<rect x="49" y="88" width="5" height="5" rx="1" transform="rotate(90 49 88)" fill="#222831" fill-opacity="0.12"/>
<rect x="27" y="88" width="5" height="5" rx="1" transform="rotate(90 27 88)" fill="#222831" fill-opacity="0.12"/>
<rect x="71" y="88" width="5" height="5" rx="1" transform="rotate(90 71 88)" fill="#222831" fill-opacity="0.12"/>
<rect x="5" width="5" height="5" rx="1" transform="rotate(90 5 0)" fill="#222831" fill-opacity="0.12"/>
<rect x="49" width="5" height="5" rx="1" transform="rotate(90 49 0)" fill="#222831" fill-opacity="0.12"/>
<rect x="27" width="5" height="5" rx="1" transform="rotate(90 27 0)" fill="#222831" fill-opacity="0.12"/>
<rect x="71" width="5" height="5" rx="1" transform="rotate(90 71 0)" fill="#222831" fill-opacity="0.12"/>
</svg>
